PathFileType	4	(X/Y/Z)	/Users/itak/Documents/Research/Walk-IL/dataset/trc/00518_00183.trc
DataRate	CameraRate	NumFrames	NumMarkers	Units	OrigDataRate	OrigDataStartFrame	OrigNumFrames
100.000000	100.000000	4	53	mm	100.000000	126	506
Frame#	Time	RPSI			LPSI			L3			STRN			T10			C7			CLAV			RBAK			LBAK			LSHO			LUPA			LAEL			LAOL			LWTS			LWPS			LFRA			LIFD			LHPS			LHTS			RSHO			RUPA			RAEL			RAOL			RWTS			RWPS			RFRA			RIFD			RHTS			RHPS			RBHD			LFHD			RFHD			LBHD			LHIP			RHIP			RASI			LASI			LKNE			LTHI			LANK			LTIP			LTOE			LMT1			LMT5			LHEE			RKNE			RANK			RTIP			RTOE			RMT1			RMT5			RHEE			RTHI			
		X1	Y1	Z1	X2	Y2	Z2	X3	Y3	Z3	X4	Y4	Z4	X5	Y5	Z5	X6	Y6	Z6	X7	Y7	Z7	X8	Y8	Z8	X9	Y9	Z9	X10	Y10	Z10	X11	Y11	Z11	X12	Y12	Z12	X13	Y13	Z13	X14	Y14	Z14	X15	Y15	Z15	X16	Y16	Z16	X17	Y17	Z17	X18	Y18	Z18	X19	Y19	Z19	X20	Y20	Z20	X21	Y21	Z21	X22	Y22	Z22	X23	Y23	Z23	X24	Y24	Z24	X25	Y25	Z25	X26	Y26	Z26	X27	Y27	Z27	X28	Y28	Z28	X29	Y29	Z29	X30	Y30	Z30	X31	Y31	Z31	X32	Y32	Z32	X33	Y33	Z33	X34	Y34	Z34	X35	Y35	Z35	X36	Y36	Z36	X37	Y37	Z37	X38	Y38	Z38	X39	Y39	Z39	X40	Y40	Z40	X41	Y41	Z41	X42	Y42	Z42	X43	Y43	Z43	X44	Y44	Z44	X45	Y45	Z45	X46	Y46	Z46	X47	Y47	Z47	X48	Y48	Z48	X49	Y49	Z49	X50	Y50	Z50	X51	Y51	Z51	X52	Y52	Z52	X53	Y53	Z53	

127	1.26	-1179.142822265625	962.9515380859375	-460.05712890625	-1139.456176757812	962.5885009765625	-577.3375244140625	-1147.916625976562	1041.981323242188	-526.2556762695312	-910.919677734375	1177.42333984375	-472.6573791503906	-1145.40625	1147.598266601562	-524.1270751953125	-1070.132568359375	1368.736083984375	-502.4442443847656	-932.7409057617188	1276.297119140625	-475.0513000488281	-1153.549926757812	1254.888061523438	-435.2895202636719	-1083.32861328125	1319.014282226562	-595.0048828125	-971.9424438476562	1359.291748046875	-644.6665649414062	-985.3880004882812	1238.708374023438	-714.4550170898438	-993.0554809570312	1031.228515625	-755.6131591796875	-1075.789428710938	1026.920654296875	-699.1801147460938	-935.0730590820312	830.4521484375	-720.455322265625	-1011.574645996094	808.4630737304688	-771.9474487304688	-984.9983520507812	944.5817260742188	-761.7213134765625	-952.8961791992188	674.0543823242188	-729.4837646484375	-992.9688110351562	752.307373046875	-771.7431640625	-934.4536743164062	753.8377075195312	-747.8143920898438	-1052.814819335938	1355.338623046875	-347.5904846191406	-1092.80078125	1292.913940429688	-299.3863220214844	-1151.867309570312	1034.302368164062	-254.4231719970703	-1188.465698242188	1020.578063964844	-307.8452453613281	-1080.2041015625	819.74755859375	-237.5034332275391	-1170.08544921875	808.7699584960938	-221.7549896240234	-1161.014282226562	980.6266479492188	-245.086669921875	-1104.4296875	663.4214477539062	-223.1821594238281	-1090.754028320312	730.4935913085938	-203.3906097412109	-1160.773315429688	738.3665771484375	-208.6255187988281	-1028.755004882812	1511.859985351562	-396.1968688964844	-863.8726806640625	1565.357543945312	-497.7568664550781	-898.4610595703125	1552.130249023438	-375.8023376464844	-1000.250244140625	1526.020385742188	-552.6199340820312	-1007.623413085938	877.5023193359375	-674.3479614257812	-1106.51806640625	870.7808837890625	-304.4444885253906	-999.42333984375	911.8522338867188	-351.7864074707031	-931.8085327148438	908.4297485351562	-584.6412963867188	-1048.595336914062	459.8554382324219	-616.6837158203125	-1011.896423339844	614.0690307617188	-641.953857421875	-1209.136352539062	49.37091827392578	-619.065673828125	-1098.4765625	315.1376647949219	-621.174072265625	-1026.546508789062	39.36721420288086	-522.4131469726562	-1109.384155273438	41.49154663085938	-504.1282348632812	-1100.488159179688	47.19411087036133	-605.9948120117188	-1269.3447265625	41.27668380737305	-569.6334228515625	-939.6299438476562	517.3389892578125	-326.5741271972656	-1023.508911132812	87.40084075927734	-331.3868713378906	-925.979736328125	372.3500366210938	-322.8517456054688	-827.2943725585938	81.3372802734375	-327.4232788085938	-876.5586547851562	75.30474853515625	-380.353515625	-919.750732421875	77.74050140380859	-293.1484985351562	-1064.428344726562	80.76483154296875	-388.7676391601562	-1041.296020507812	753.6203002929688	-298.8119506835938	
128	1.27	-1174.779418945312	962.205322265625	-458.87255859375	-1135.4267578125	961.6414184570312	-576.2570190429688	-1143.644775390625	1041.269287109375	-525.1228637695312	-906.3008422851562	1176.409790039062	-472.1299438476562	-1140.8642578125	1146.923950195312	-522.8541870117188	-1065.35693359375	1367.966186523438	-501.2779235839844	-928.0314331054688	1275.317504882812	-474.3564147949219	-1148.72216796875	1254.184326171875	-433.9600219726562	-1078.84716796875	1318.3203125	-593.8387451171875	-967.572509765625	1358.591430664062	-643.766845703125	-981.1310424804688	1238.075317382812	-713.7061767578125	-988.3944702148438	1030.632446289062	-755.2244262695312	-1071.055053710938	1026.054809570312	-698.6669311523438	-929.89208984375	829.9488525390625	-720.3773193359375	-1006.384643554688	807.8497314453125	-771.802001953125	-980.1708374023438	944.0037841796875	-761.449462890625	-947.3543701171875	673.5422973632812	-729.5946044921875	-987.7572021484375	751.8162841796875	-771.71533203125	-929.19482421875	753.3495483398438	-747.8260498046875	-1047.576904296875	1354.424926757812	-346.4938354492188	-1087.607055664062	1292.1279296875	-298.2434692382812	-1148.394775390625	1034.001708984375	-253.6302947998047	-1184.865966796875	1020.510375976562	-307.190185546875	-1078.510498046875	818.7498779296875	-236.7125091552734	-1168.536376953125	808.5377197265625	-221.2509307861328	-1157.982543945312	980.3861694335938	-244.3313751220703	-1104.18896484375	662.6160278320312	-222.7498931884766	-1089.954467773438	729.52490234375	-202.7847137451172	-1159.89990234375	738.0309448242188	-208.1902160644531	-1023.866943359375	1510.700927734375	-394.9527893066406	-859.1813354492188	1564.616821289062	-496.609619140625	-893.5997314453125	1551.132080078125	-374.6564025878906	-995.5598754882812	1525.196655273438	-551.3793334960938	-1003.878295898438	876.4591674804688	-673.5791015625	-1101.593505859375	870.5017700195312	-303.2957458496094	-994.6400756835938	911.4281005859375	-351.0626220703125	-927.8094482421875	907.4613647460938	-584.0867919921875	-1046.03173828125	459.0772399902344	-615.6022338867188	-1008.685852050781	613.0740356445312	-640.7752075195312	-1209.093872070312	49.54941558837891	-618.8583374023438	-1096.85400390625	314.5515747070312	-620.2318115234375	-1026.5908203125	39.23943710327148	-522.4910888671875	-1109.367431640625	41.37960433959961	-504.0553283691406	-1100.433471679688	47.16279983520508	-605.9411010742188	-1269.349731445312	41.31618499755859	-569.4688720703125	-934.2484130859375	517.2568969726562	-324.9632873535156	-1006.681213378906	84.55677795410156	-327.5182495117188	-917.37890625	372.1139526367188	-320.5553588867188	-810.2326049804688	83.65322875976562	-324.0150451660156	-859.5997924804688	76.15029144287109	-376.8176879882812	-902.6187133789062	77.93445587158203	-289.5074768066406	-1047.5703125	76.49592590332031	-384.7099609375	-1036.254272460938	753.4884643554688	-297.5321960449219	
129	1.28	-1170.248046875	961.3643188476562	-457.607421875	-1131.23974609375	960.6175537109375	-575.0936889648438	-1139.231689453125	1040.463134765625	-523.8916015625	-901.574951171875	1175.3271484375	-471.5469970703125	-1136.203369140625	1146.15234375	-521.457763671875	-1060.490234375	1367.107299804688	-500.0115966796875	-923.21240234375	1274.2626953125	-473.5962524414062	-1143.772094726562	1253.388916015625	-432.5037841796875	-1074.301635742188	1317.53662109375	-592.5613403320312	-963.1629028320312	1357.794189453125	-642.8027954101562	-976.8432006835938	1237.335693359375	-712.86669921875	-983.6531372070312	1029.92138671875	-754.71435546875	-1066.229736328125	1025.062255859375	-698.0191040039062	-924.5374145507812	829.3816528320312	-720.1575927734375	-1001.005676269531	807.1203002929688	-771.4977416992188	-975.2263793945312	943.3145751953125	-761.0360107421875	-941.5402221679688	672.9509887695312	-729.5792846679688	-982.3380737304688	751.2266235351562	-771.5452880859375	-923.7361450195312	752.8011474609375	-747.69384765625	-1042.2001953125	1353.42919921875	-345.3062744140625	-1082.252685546875	1291.251220703125	-296.9932250976562	-1144.71337890625	1033.606323242188	-252.737060546875	-1181.089721679688	1020.367004394531	-306.4210510253906	-1076.608764648438	817.66162109375	-235.9353637695312	-1166.76513671875	808.2003173828125	-220.7144012451172	-1154.7294921875	980.0498046875	-243.4961395263672	-1103.724609375	661.7246704101562	-222.4187622070312	-1088.926025390625	728.4537963867188	-202.2436370849609	-1158.791870117188	737.5909423828125	-207.7820129394531	-1018.886352539062	1509.467651367188	-393.6468811035156	-854.4059448242188	1563.803344726562	-495.4129028320312	-888.6478881835938	1550.06396484375	-373.4521484375	-990.7898559570312	1524.293090820312	-550.0773315429688	-999.9667358398438	875.3538208007812	-672.7371826171875	-1096.530395507812	870.1109619140625	-302.09326171875	-989.692138671875	910.907958984375	-350.2578430175781	-923.6555786132812	906.423095703125	-583.46142578125	-1043.340454101562	458.2408142089844	-614.4484252929688	-1005.32568359375	612.0155639648438	-639.5319213867188	-1209.058471679688	49.72995376586914	-618.6453247070312	-1095.119873046875	313.9191589355469	-619.2105712890625	-1026.607299804688	39.1119270324707	-522.563232421875	-1109.330810546875	41.25082015991211	-503.9666748046875	-1100.373901367188	47.11943817138672	-605.864501953125	-1269.364135742188	41.37502288818359	-569.2905883789062	-928.9476928710938	516.9863891601562	-323.156494140625	-989.5950317382812	81.80826568603516	-323.4164428710938	-908.7508544921875	371.79296875	-318.0890502929688	-793.0515747070312	86.14691162109375	-320.6593627929688	-842.5324096679688	77.16080474853516	-373.2557067871094	-885.2672729492188	78.26019287109375	-285.7755432128906	-1030.476806640625	72.33905029296875	-380.3691711425781	-1031.199951171875	753.205078125	-296.1656799316406	
130	1.29	-1165.546630859375	960.4345703125	-456.2612609863281	-1126.894287109375	959.5167846679688	-573.8453369140625	-1134.672607421875	1039.562377929688	-522.5636596679688	-896.740234375	1174.175415039062	-470.9053344726562	-1131.426635742188	1145.283325195312	-519.9423828125	-1055.529541015625	1366.159545898438	-498.6472778320312	-918.2825927734375	1273.134033203125	-472.7684326171875	-1138.701782226562	1252.499145507812	-430.9289855957031	-1069.686645507812	1316.663330078125	-591.1757202148438	-958.706298828125	1356.9013671875	-641.77099609375	-972.5147705078125	1236.491455078125	-711.9326171875	-978.8309326171875	1029.09814453125	-754.0775756835938	-1061.309448242188	1023.948547363281	-697.23046875	-919.014404296875	828.7486572265625	-719.7973022460938	-995.4470825195312	806.2783203125	-771.02978515625	-970.1653442382812	942.5180053710938	-760.4764404296875	-935.4739990234375	672.2778930664062	-729.436767578125	-976.7254028320312	750.5390014648438	-771.2244873046875	-918.0851440429688	752.1937866210938	-747.417724609375	-1036.693115234375	1352.348510742188	-344.0279846191406	-1076.748413085938	1290.280883789062	-295.6406555175781	-1140.818969726562	1033.10791015625	-251.7355194091797	-1177.14013671875	1020.140380859375	-305.5251159667969	-1074.48974609375	816.4822387695312	-235.1678161621094	-1164.758666992188	807.754638671875	-220.1278533935547	-1151.248046875	979.610107421875	-242.5709991455078	-1103.019287109375	660.7455444335938	-222.1703796386719	-1087.6513671875	727.2800903320312	-201.7563323974609	-1157.431762695312	737.0436401367188	-207.3815460205078	-1013.810424804688	1508.164184570312	-392.2765502929688	-849.5432739257812	1562.916381835938	-494.169189453125	-883.6015625	1548.923706054688	-372.1905517578125	-985.9415893554688	1523.31103515625	-548.7123413085938	-995.8921508789062	874.1806030273438	-671.8181762695312	-1091.329833984375	869.6109008789062	-300.833984375	-984.5776977539062	910.2904663085938	-349.3713684082031	-919.3500366210938	905.31005859375	-582.7640991210938	-1040.513305664062	457.33935546875	-613.2191162109375	-1001.812744140625	610.8909912109375	-638.2283935546875	-1209.02685546875	49.90980529785156	-618.4310913085938	-1093.269409179688	313.2377624511719	-618.1121215820312	-1026.592041015625	38.98618316650391	-522.6271362304688	-1109.28173828125	41.10453414916992	-503.8684997558594	-1100.30712890625	47.05772018432617	-605.7643432617188	-1269.388427734375	41.459716796875	-569.1067504882812	-923.6947631835938	516.545166015625	-321.1542053222656	-972.3330078125	79.21646881103516	-319.1072387695312	-900.09765625	371.4134521484375	-315.4638977050781	-775.841552734375	88.83177947998047	-317.35400390625	-825.44189453125	78.35491180419922	-369.6716918945312	-867.7921142578125	78.75852203369141	-281.959716796875	-1013.225646972656	68.36083984375	-375.7772827148438	-1026.126831054688	752.7777709960938	-294.7077941894531	
